<?xml version="1.0" encoding="UTF-8" standalone="no"?>
<!DOCTYPE svg PUBLIC "-//W3C//DTD SVG 1.1//EN"
 "http://www.w3.org/Graphics/SVG/1.1/DTD/svg11.dtd">
<!-- Generated by graphviz version 2.40.1 (20161225.0304)
 -->
<!-- Title: dependencies Pages: 1 -->
<svg width="504pt" height="211pt"
 viewBox="0.00 0.00 504.00 211.00" xmlns="http://www.w3.org/2000/svg" xmlns:xlink="http://www.w3.org/1999/xlink">
<g id="graph0" class="graph" transform="scale(1 1) rotate(0) translate(4 207)">
<title>dependencies</title>
<polygon fill="#ffffff" stroke="transparent" points="-4,4 -4,-207 500,-207 500,4 -4,4"/>
<text text-anchor="start" x="227.0091" y="-42.4" font-family="sans-serif" font-weight="bold" font-size="14.00" fill="#000000">Legend</text>
<polygon fill="#ffffb3" stroke="transparent" points="14,-10 14,-30 34,-30 34,-10 14,-10"/>
<text text-anchor="start" x="37.629" y="-15.4" font-family="sans-serif" font-size="14.00" fill="#000000"> &#160;Declarations</text>
<polygon fill="#8dd3c7" stroke="transparent" points="127,-10 127,-30 147,-30 147,-10 127,-10"/>
<text text-anchor="start" x="150.7251" y="-15.4" font-family="sans-serif" font-size="14.00" fill="#000000"> &#160;Module</text>
<polygon fill="#80b1d3" stroke="transparent" points="213,-10 213,-30 233,-30 233,-10 213,-10"/>
<text text-anchor="start" x="236.7812" y="-15.4" font-family="sans-serif" font-size="14.00" fill="#000000"> &#160;Bootstrap</text>
<polygon fill="#fdb462" stroke="transparent" points="310,-10 310,-30 330,-30 330,-10 310,-10"/>
<text text-anchor="start" x="333.6732" y="-15.4" font-family="sans-serif" font-size="14.00" fill="#000000"> &#160;Providers</text>
<polygon fill="#fb8072" stroke="transparent" points="406,-10 406,-30 426,-30 426,-10 406,-10"/>
<text text-anchor="start" x="429.7258" y="-15.4" font-family="sans-serif" font-size="14.00" fill="#000000"> &#160;Exports</text>
<g id="clust1" class="cluster">
<title>cluster_MasterPageModule</title>
<polygon fill="none" stroke="#000000" stroke-dasharray="1,5" points="119,-70 119,-195 377,-195 377,-70 119,-70"/>
</g>
<g id="clust2" class="cluster">
<title>cluster_MasterPageModule_declarations</title>
<polygon fill="none" stroke="#000000" points="271,-78 271,-130 369,-130 369,-78 271,-78"/>
</g>
<g id="clust4" class="cluster">
<title>cluster_MasterPageModule_imports</title>
<polygon fill="none" stroke="#000000" points="127,-78 127,-130 263,-130 263,-78 127,-78"/>
</g>
<!-- MasterPage -->
<g id="node1" class="node">
<title>MasterPage</title>
<polygon fill="#ffffb3" stroke="#000000" points="361.0814,-122 278.9186,-122 278.9186,-86 361.0814,-86 361.0814,-122"/>
<text text-anchor="middle" x="320" y="-99.8" font-family="Times,serif" font-size="14.00" fill="#000000">MasterPage</text>
</g>
<!-- MasterPageModule -->
<g id="node2" class="node">
<title>MasterPageModule</title>
<polygon fill="#8dd3c7" stroke="#000000" points="312.6317,-187 309.6317,-191 288.6317,-191 285.6317,-187 187.3683,-187 187.3683,-151 312.6317,-151 312.6317,-187"/>
<text text-anchor="middle" x="250" y="-164.8" font-family="Times,serif" font-size="14.00" fill="#000000">MasterPageModule</text>
</g>
<!-- MasterPage&#45;&gt;MasterPageModule -->
<g id="edge1" class="edge">
<title>MasterPage&#45;&gt;MasterPageModule</title>
<path fill="none" stroke="#000000" d="M295.8875,-122.1061C295.8875,-122.1061 295.8875,-140.991 295.8875,-140.991"/>
<polygon fill="#000000" stroke="#000000" points="292.3875,-140.9909 295.8875,-150.991 299.3875,-140.991 292.3875,-140.9909"/>
</g>
<!-- IonicImageLoader -->
<g id="node3" class="node">
<title>IonicImageLoader</title>
<polygon fill="#8dd3c7" stroke="#000000" points="254.8892,-122 251.8892,-126 230.8892,-126 227.8892,-122 135.1108,-122 135.1108,-86 254.8892,-86 254.8892,-122"/>
<text text-anchor="middle" x="195" y="-99.8" font-family="Times,serif" font-size="14.00" fill="#000000">IonicImageLoader</text>
</g>
<!-- IonicImageLoader&#45;&gt;MasterPageModule -->
<g id="edge2" class="edge">
<title>IonicImageLoader&#45;&gt;MasterPageModule</title>
<path fill="none" stroke="#000000" d="M220.9394,-122.1061C220.9394,-122.1061 220.9394,-140.991 220.9394,-140.991"/>
<polygon fill="#000000" stroke="#000000" points="217.4394,-140.9909 220.9394,-150.991 224.4394,-140.991 217.4394,-140.9909"/>
</g>
</g>
</svg>
